<?xml version="1.0" encoding="UTF-8" standalone="no"?>
<svg width="67px" height="56px" viewBox="0 0 67 56" version="1.1" xmlns="http://www.w3.org/2000/svg" xmlns:xlink="http://www.w3.org/1999/xlink">
    <!-- Generator: Sketch 49.3 (51167) - http://www.bohemiancoding.com/sketch -->
    <title>Group 27</title>
    <desc>Created with Sketch.</desc>
    <defs></defs>
    <g id="Page-1" stroke="none" stroke-width="1" fill="none" fill-rule="evenodd">
        <g id="Haqqinda-photo" transform="translate(-150.000000, -14.000000)">
            <g id="Group-27" transform="translate(150.000000, 14.000000)">
                <polygon id="Fill-1" fill="#670826" points="39.9534294 0.0732220944 39.9534294 18.8048677 39.9534294 37.5365865 66.5306193 37.5365865 66.5306193 18.8048677 66.5306193 0.0732220944"></polygon>
                <polygon id="Fill-2" fill="#F16522" points="39.9534294 0.0732220944 0.0876080469 37.5365865 26.8408314 37.5365865 40.0417381 24.2913621 66.5306193 0.0732220944"></polygon>
                <path d="M2.82217748,49.5538634 L12.4025013,49.5538634 L12.4025013,43.6432974 L7.61237588,43.6432974 C7.52844615,43.6432974 7.35190177,43.6556 7.08303469,43.6800586 C6.81394866,43.7047369 6.50289777,43.7659567 6.15017393,43.8640841 C5.79723115,43.9624312 5.425094,44.1130641 5.03383547,44.3164222 C4.642358,44.5197803 4.28255487,44.8001758 3.95420715,45.157755 C3.62571347,45.5153342 3.35494884,45.9623266 3.14191328,46.4986589 C2.92858579,47.0350643 2.82217748,47.685488 2.82217748,48.449637 L2.82217748,49.5538634 Z M15.1277363,55.9904362 L12.4025013,55.9904362 L12.4025013,52.2884695 L2.82217748,52.2884695 L2.82217748,55.9904362 L0.0969424931,55.9904362 L0.0969424931,48.449637 C0.0969424931,47.3489256 0.285601941,46.3357234 0.662920837,45.4101036 C1.04023973,44.4846302 1.56432619,43.6889193 2.2352532,43.0226781 C2.90603423,42.3567298 3.69906076,41.8378994 4.61455171,41.4662601 C5.5298967,41.0946208 6.52909844,40.9087645 7.61237588,40.9087645 L13.7546458,40.9087645 C13.9432323,40.9087645 14.1215282,40.9439879 14.2891688,41.013922 C14.4568823,41.084149 14.6036498,41.1822764 14.7294714,41.3084507 C14.8552201,41.434625 14.9530165,41.5818893 15.0229336,41.7501705 C15.0926318,41.9183785 15.1277363,42.097278 15.1277363,42.2865028 L15.1277363,55.9904362 Z" id="Fill-46" fill="#323232"></path>
                <path d="M29.9232933,47.2191045 C29.9232933,46.6864337 29.837612,46.1988723 29.6664683,45.7572257 C29.4951786,45.3155058 29.2525122,44.938594 28.9380312,44.6266367 C28.6235501,44.3146794 28.2478368,44.0728026 27.8112562,43.9009332 C27.3744567,43.7292102 26.8904376,43.6433121 26.3594908,43.6433121 L20.3534789,43.6433121 L20.3534789,53.2559912 L26.3594908,53.2559912 C26.8904376,53.2559912 27.3744567,53.1701663 27.8112562,52.9982969 C28.2478368,52.8265739 28.6235501,52.5846239 28.9380312,52.2726666 C29.2525122,51.9607093 29.4951786,51.585555 29.6664683,51.1472769 C29.837612,50.7092185 29.9232933,50.2201193 29.9232933,49.6801255 L29.9232933,47.2191045 Z M32.6485283,49.6801255 C32.6485283,50.5987153 32.4894997,51.4435631 32.1715884,52.2148154 C31.8536042,52.9861408 31.4151261,53.6503316 30.856154,54.2079004 C30.297036,54.7651763 29.6332613,55.2016968 28.8646109,55.5171692 C28.0958875,55.8327147 27.2609691,55.9904509 26.3594908,55.9904509 L19.0013344,55.9904509 C18.8055957,55.9904509 18.6239425,55.9555205 18.456302,55.8852934 C18.2885885,55.8153593 18.1434995,55.7187697 18.021254,55.5960372 C17.8989356,55.4734512 17.8028178,55.3277979 17.7330466,55.1596631 C17.6630565,54.9913819 17.6282439,54.8089675 17.6282439,54.6127126 L17.6282439,42.2865174 C17.6282439,42.0972926 17.6630565,41.9183931 17.7330466,41.7501119 C17.8028178,41.581904 17.8989356,41.4346396 18.021254,41.3084653 C18.1434995,41.1822178 18.2885885,41.0841636 18.456302,41.0139366 C18.6239425,40.9440025 18.8055957,40.9087792 19.0013344,40.9087792 L26.3594908,40.9087792 C27.2609691,40.9087792 28.0958875,41.0665153 28.8646109,41.3820609 C29.6332613,41.6976064 30.297036,42.1340538 30.856154,42.6914761 C31.4151261,43.2488252 31.8536042,43.9150664 32.1715884,44.6897604 C32.4894997,45.4644544 32.6485283,46.3077644 32.6485283,47.2191045 L32.6485283,49.6801255 Z" id="Fill-47" fill="#323232"></path>
                <path d="M49.6977446,45.9781368 C49.6977446,46.6021247 49.6207482,47.1596935 49.4672663,47.6503306 C49.3133464,48.1411874 49.1055656,48.5741929 48.8434859,48.9492008 C48.5814791,49.3243551 48.2791861,49.6451731 47.9368258,49.9115818 C47.5944655,50.1781368 47.236122,50.397166 46.8624522,50.5688158 C46.4885635,50.7406852 46.1112446,50.865102 45.7304955,50.9422126 C45.3495275,51.0194696 44.9914759,51.0579151 44.6560489,51.0579151 L50.3476527,55.9905021 L46.1340881,55.9905021 L40.4529208,51.0579151 L38.4928331,51.0579151 L38.4928331,48.3233089 L44.6560489,48.3233089 C44.9984093,48.2954817 45.3112117,48.223424 45.5941644,48.107868 C45.8771171,47.9921655 46.121754,47.8361868 46.3279293,47.6397123 C46.5339585,47.4436039 46.6929871,47.2069265 46.8047961,46.9298996 C46.9165321,46.6530191 46.9725826,46.3357161 46.9725826,45.9781368 L46.9725826,44.2532179 C46.9725826,44.09907 46.9532423,43.9815368 46.9149265,43.9009844 C46.8763918,43.8204321 46.8274207,43.7608233 46.768159,43.7220849 C46.7087513,43.6836395 46.6458405,43.6607187 46.5794265,43.6537619 C46.5129396,43.6468783 46.4518533,43.6432901 46.3960948,43.6432901 L37.4027683,43.6432901 L37.4027683,55.9905021 L34.6773873,55.9905021 L34.6773873,42.2864954 C34.6773873,42.0972706 34.7123459,41.9184444 34.78219,41.7501632 C34.8520341,41.581882 34.9481519,41.4346176 35.0704704,41.3084434 C35.1926429,41.1822691 35.3377319,41.0841416 35.5054454,41.0139146 C35.6732318,40.9439805 35.854885,40.9087572 36.0505507,40.9087572 L46.3960948,40.9087572 C47.003965,40.9087572 47.517542,41.0191872 47.9368258,41.2401203 C48.3561825,41.460907 48.6967913,41.7380071 48.958798,42.070908 C49.2208778,42.4039554 49.4096102,42.7633654 49.5247764,43.1489183 C49.6400885,43.5346909 49.6977446,43.8957119 49.6977446,44.2322743 L49.6977446,45.9781368 Z" id="Fill-48" fill="#323232"></path>
                <path d="M54.2317749,49.5538634 L63.8120987,49.5538634 L63.8120987,43.6432974 L59.0219003,43.6432974 C58.9380435,43.6432974 58.7614262,43.6556 58.4925591,43.6800586 C58.2234001,43.7047369 57.9124951,43.7659567 57.5596983,43.8640841 C57.2068285,43.9624312 56.8346914,44.1130641 56.4434329,44.3164222 C56.0518824,44.5197803 55.6921523,44.8001758 55.3638775,45.157755 C55.0351649,45.5153342 54.7645462,45.9623266 54.5514377,46.4986589 C54.3382562,47.0350643 54.2317749,47.685488 54.2317749,48.449637 L54.2317749,49.5538634 Z M66.5372607,55.9904362 L63.8120987,55.9904362 L63.8120987,52.2884695 L54.2317749,52.2884695 L54.2317749,55.9904362 L51.5063939,55.9904362 L51.5063939,48.449637 C51.5063939,47.3489256 51.6951993,46.3357234 52.0725182,45.4101036 C52.4499101,44.4846302 52.9739966,43.6889193 53.6447776,43.0226781 C54.3155586,42.3567298 55.1086581,41.8378994 56.0241491,41.4662601 C56.9395671,41.0946208 57.9386958,40.9087645 59.0219003,40.9087645 L65.1641702,40.9087645 C65.3529027,40.9087645 65.5309797,40.9439879 65.6986932,41.013922 C65.8664796,41.084149 66.0131742,41.1822764 66.1389958,41.3084507 C66.2647445,41.434625 66.3625409,41.5818893 66.432458,41.7501705 C66.5023021,41.9183785 66.5372607,42.097278 66.5372607,42.2865028 L66.5372607,55.9904362 Z" id="Fill-49" fill="#323232"></path>
            </g>
        </g>
    </g>
</svg>